solid STL generated by MeshLab
  facet normal -4.417334e-01 -5.547538e-01 -7.050672e-01
    outer loop
      vertex  -7.843882e+00 -1.528122e+01  2.672504e+00
      vertex  -9.555717e+00 -1.293860e+01  1.901793e+00
      vertex  -6.500918e+00 -1.324499e+01  2.289943e-01
    endloop
  endfacet
  facet normal -4.791954e-01 -3.238795e-01 -8.157658e-01
    outer loop
      vertex  -9.555717e+00 -1.293860e+01  1.901793e+00
      vertex  -7.962102e+00 -1.027968e+01 -8.998279e-02
      vertex  -6.500918e+00 -1.324499e+01  2.289943e-01
    endloop
  endfacet
  facet normal -3.694693e-01 -6.038708e-01 -7.062807e-01
    outer loop
      vertex  -5.109212e+00 -1.608499e+01  1.929168e+00
      vertex  -7.843882e+00 -1.528122e+01  2.672504e+00
      vertex  -6.500918e+00 -1.324499e+01  2.289943e-01
    endloop
  endfacet
  facet normal -4.846043e-02 -1.304029e-01 -9.902760e-01
    outer loop
      vertex  -7.962102e+00 -1.027968e+01 -8.998279e-02
      vertex  -4.571659e+00 -1.006002e+01 -2.848240e-01
      vertex  -6.500918e+00 -1.324499e+01  2.289943e-01
    endloop
  endfacet
  facet normal -1.390457e-01 -7.507375e-02 -9.874362e-01
    outer loop
      vertex  -4.571659e+00 -1.006002e+01 -2.848240e-01
      vertex  -3.245495e+00 -1.337211e+01 -2.197529e-01
      vertex  -6.500918e+00 -1.324499e+01  2.289943e-01
    endloop
  endfacet
  facet normal -1.347310e-01 -5.567341e-01 -8.196918e-01
    outer loop
      vertex  -3.245495e+00 -1.337211e+01 -2.197529e-01
      vertex  -5.109212e+00 -1.608499e+01  1.929168e+00
      vertex  -6.500918e+00 -1.324499e+01  2.289943e-01
    endloop
  endfacet
  facet normal -2.625445e-01  2.835373e-01 -9.223215e-01
    outer loop
      vertex   4.431180e+00 -8.600776e+00 -4.504750e-02
      vertex   4.723901e+00 -5.567940e+00  8.039728e-01
      vertex   7.778830e+00 -6.907605e+00 -4.774675e-01
    endloop
  endfacet
  facet normal -3.102269e-01  1.846038e-01 -9.325667e-01
    outer loop
      vertex   7.778830e+00 -6.907605e+00 -4.774675e-01
      vertex   4.723901e+00 -5.567940e+00  8.039728e-01
      vertex   6.593827e+00 -2.935770e+00  7.029689e-01
    endloop
  endfacet
  facet normal -1.111337e-01  2.778412e-01 -9.541769e-01
    outer loop
      vertex   4.431180e+00 -8.600776e+00 -4.504750e-02
      vertex   1.181933e+00 -6.722355e+00  8.803611e-01
      vertex   4.723901e+00 -5.567940e+00  8.039728e-01
    endloop
  endfacet
  facet normal -1.878370e-01  9.593207e-02 -9.775042e-01
    outer loop
      vertex   4.723901e+00 -5.567940e+00  8.039728e-01
      vertex   2.691381e+00 -3.098009e+00  1.436940e+00
      vertex   6.593827e+00 -2.935770e+00  7.029689e-01
    endloop
  endfacet
  facet normal -8.116940e-02  1.842276e-01 -9.795263e-01
    outer loop
      vertex   2.691381e+00 -3.098009e+00  1.436940e+00
      vertex   4.723901e+00 -5.567940e+00  8.039728e-01
      vertex   1.181933e+00 -6.722355e+00  8.803611e-01
    endloop
  endfacet
  facet normal -3.399764e-01 -4.247582e-01 -8.390450e-01
    outer loop
      vertex  -7.962102e+00 -1.027968e+01 -8.998279e-02
      vertex  -9.555717e+00 -1.293860e+01  1.901793e+00
      vertex  -1.122654e+01 -1.019726e+01  1.191025e+00
    endloop
  endfacet
  facet normal -2.286727e-01 -3.497245e-01 -9.085162e-01
    outer loop
      vertex  -1.122654e+01 -1.019726e+01  1.191025e+00
      vertex  -1.296684e+01 -7.381005e+00  5.449669e-01
      vertex  -9.573198e+00 -7.336971e+00 -3.261602e-01
    endloop
  endfacet
  facet normal -3.578115e-01 -2.676966e-01 -8.946002e-01
    outer loop
      vertex  -1.122654e+01 -1.019726e+01  1.191025e+00
      vertex  -9.573198e+00 -7.336971e+00 -3.261602e-01
      vertex  -7.962102e+00 -1.027968e+01 -8.998279e-02
    endloop
  endfacet
  facet normal -2.135714e-01 -2.977144e-01 -9.304587e-01
    outer loop
      vertex  -1.131518e+01 -4.949008e+00 -6.122987e-01
      vertex  -1.296684e+01 -7.381005e+00  5.449669e-01
      vertex  -1.423067e+01 -4.239101e+00 -1.702417e-01
    endloop
  endfacet
  facet normal -2.350326e-01 -2.828798e-01 -9.299133e-01
    outer loop
      vertex  -9.573198e+00 -7.336971e+00 -3.261602e-01
      vertex  -1.296684e+01 -7.381005e+00  5.449669e-01
      vertex  -1.131518e+01 -4.949008e+00 -6.122987e-01
    endloop
  endfacet
  facet normal -9.803436e-02 -9.349220e-02 -9.907817e-01
    outer loop
      vertex  -1.478092e+01 -1.116198e+00 -4.104799e-01
      vertex  -1.155209e+01 -1.897602e+00 -6.562264e-01
      vertex  -1.423067e+01 -4.239101e+00 -1.702417e-01
    endloop
  endfacet
  facet normal -1.561236e-01 -2.633566e-02 -9.873863e-01
    outer loop
      vertex  -1.423067e+01 -4.239101e+00 -1.702417e-01
      vertex  -1.155209e+01 -1.897602e+00 -6.562264e-01
      vertex  -1.131518e+01 -4.949008e+00 -6.122987e-01
    endloop
  endfacet
  facet normal -1.340807e-01 -5.707796e-02 -9.893253e-01
    outer loop
      vertex  -1.219018e+01  1.559183e+00 -9.159491e-01
      vertex  -1.478092e+01 -1.116198e+00 -4.104799e-01
      vertex  -1.532237e+01  2.475022e+00 -5.442899e-01
    endloop
  endfacet
  facet normal -9.780400e-02 -9.250396e-02 -9.908973e-01
    outer loop
      vertex  -1.155209e+01 -1.897602e+00 -6.562264e-01
      vertex  -1.478092e+01 -1.116198e+00 -4.104799e-01
      vertex  -1.219018e+01  1.559183e+00 -9.159491e-01
    endloop
  endfacet
  facet normal -2.933290e-01  1.588263e-02 -9.558796e-01
    outer loop
      vertex  -1.276651e+01  5.063222e+00 -1.285597e+00
      vertex  -1.532237e+01  2.475022e+00 -5.442899e-01
      vertex  -1.592692e+01  5.729314e+00 -3.047002e-01
    endloop
  endfacet
  facet normal -1.538652e-01 -1.286555e-01 -9.796802e-01
    outer loop
      vertex  -1.219018e+01  1.559183e+00 -9.159491e-01
      vertex  -1.532237e+01  2.475022e+00 -5.442899e-01
      vertex  -1.276651e+01  5.063222e+00 -1.285597e+00
    endloop
  endfacet
  facet normal  1.972392e-02 -4.070973e-01 -9.131718e-01
    outer loop
      vertex   4.802617e+00 -1.561968e+01  9.710771e-01
      vertex   4.654884e+00 -1.213764e+01 -5.844276e-01
      vertex   7.815819e+00 -1.326782e+01 -1.231249e-02
    endloop
  endfacet
  facet normal  8.411474e-02 -4.862000e-01 -8.697898e-01
    outer loop
      vertex   1.337584e+00 -1.665205e+01  1.213064e+00
      vertex   2.418491e+00 -1.381465e+01 -2.684707e-01
      vertex   4.802617e+00 -1.561968e+01  9.710771e-01
    endloop
  endfacet
  facet normal  1.694274e-01 -3.959762e-01 -9.024950e-01
    outer loop
      vertex   2.418491e+00 -1.381465e+01 -2.684707e-01
      vertex   4.654884e+00 -1.213764e+01 -5.844276e-01
      vertex   4.802617e+00 -1.561968e+01  9.710771e-01
    endloop
  endfacet
  facet normal  3.363193e-02 -2.377684e-01 -9.707394e-01
    outer loop
      vertex   6.920553e+00 -1.025627e+01 -7.809647e-01
      vertex   1.026756e+01 -1.049601e+01 -6.062847e-01
      vertex   7.815819e+00 -1.326782e+01 -1.231249e-02
    endloop
  endfacet
  facet normal  9.748627e-02 -2.188225e-01 -9.708827e-01
    outer loop
      vertex   4.654884e+00 -1.213764e+01 -5.844276e-01
      vertex   6.920553e+00 -1.025627e+01 -7.809647e-01
      vertex   7.815819e+00 -1.326782e+01 -1.231249e-02
    endloop
  endfacet
  facet normal -1.224049e-01 -4.930942e-02 -9.912546e-01
    outer loop
      vertex   1.164773e+01 -7.024727e+00 -9.493918e-01
      vertex   1.026756e+01 -1.049601e+01 -6.062847e-01
      vertex   7.778830e+00 -6.907605e+00 -4.774675e-01
    endloop
  endfacet
  facet normal  5.736411e-02  7.552113e-02 -9.954928e-01
    outer loop
      vertex   7.778830e+00 -6.907605e+00 -4.774675e-01
      vertex   1.026756e+01 -1.049601e+01 -6.062847e-01
      vertex   6.920553e+00 -1.025627e+01 -7.809647e-01
    endloop
  endfacet
  facet normal -1.116161e-01  8.949039e-02 -9.897137e-01
    outer loop
      vertex   1.284968e+01 -3.635907e+00 -7.785244e-01
      vertex   1.164773e+01 -7.024727e+00 -9.493918e-01
      vertex   9.744394e+00 -4.406098e+00 -4.979632e-01
    endloop
  endfacet
  facet normal -1.181193e-01  8.470611e-02 -9.893800e-01
    outer loop
      vertex   9.744394e+00 -4.406098e+00 -4.979632e-01
      vertex   1.164773e+01 -7.024727e+00 -9.493918e-01
      vertex   7.778830e+00 -6.907605e+00 -4.774675e-01
    endloop
  endfacet
  facet normal -1.008136e-01  9.776509e-02 -9.900902e-01
    outer loop
      vertex   1.392420e+01  9.341872e-02 -5.196878e-01
      vertex   1.284968e+01 -3.635907e+00 -7.785244e-01
      vertex   1.003220e+01 -1.341472e+00 -2.650802e-01
    endloop
  endfacet
  facet normal -1.107009e-01  8.563887e-02 -9.901572e-01
    outer loop
      vertex   9.744394e+00 -4.406098e+00 -4.979632e-01
      vertex   1.003220e+01 -1.341472e+00 -2.650802e-01
      vertex   1.284968e+01 -3.635907e+00 -7.785244e-01
    endloop
  endfacet
  facet normal -1.154751e-02  7.211755e-02 -9.973293e-01
    outer loop
      vertex   1.044912e+01  1.972274e+00 -3.435905e-01
      vertex   1.308716e+01  3.509845e+00 -2.629521e-01
      vertex   1.392420e+01  9.341872e-02 -5.196878e-01
    endloop
  endfacet
  facet normal -5.932802e-02 -1.618310e-02 -9.981073e-01
    outer loop
      vertex   1.392420e+01  9.341872e-02 -5.196878e-01
      vertex   1.003220e+01 -1.341472e+00 -2.650802e-01
      vertex   1.044912e+01  1.972274e+00 -3.435905e-01
    endloop
  endfacet
  facet normal -1.203390e-01 -1.059689e-01 -9.870608e-01
    outer loop
      vertex   6.777000e+00  6.504845e+00 -3.217595e-01
      vertex   8.946380e+00  8.962248e+00 -8.500643e-01
      vertex   1.051525e+01  5.762160e+00 -6.977805e-01
    endloop
  endfacet
  facet normal  8.521628e-02 -9.418667e-02 -9.919007e-01
    outer loop
      vertex   1.308716e+01  3.509845e+00 -2.629521e-01
      vertex   1.044912e+01  1.972274e+00 -3.435905e-01
      vertex   1.051525e+01  5.762160e+00 -6.977805e-01
    endloop
  endfacet
  facet normal -2.208102e-01 -8.693404e-02 -9.714347e-01
    outer loop
      vertex   1.044912e+01  1.972274e+00 -3.435905e-01
      vertex   7.911315e+00  3.687027e+00  7.980684e-02
      vertex   1.051525e+01  5.762160e+00 -6.977805e-01
    endloop
  endfacet
  facet normal -1.361338e-01 -1.932711e-01 -9.716551e-01
    outer loop
      vertex   1.051525e+01  5.762160e+00 -6.977805e-01
      vertex   7.911315e+00  3.687027e+00  7.980684e-02
      vertex   6.777000e+00  6.504845e+00 -3.217595e-01
    endloop
  endfacet
  facet normal  3.765806e-02 -3.691583e-01 -9.286033e-01
    outer loop
      vertex   7.888618e+00  1.158814e+01 -1.936861e+00
      vertex   8.946380e+00  8.962248e+00 -8.500643e-01
      vertex   5.593762e+00  9.357576e+00 -1.143184e+00
    endloop
  endfacet
  facet normal  5.427580e-02 -2.554395e-01 -9.653004e-01
    outer loop
      vertex   5.593762e+00  9.357576e+00 -1.143184e+00
      vertex   8.946380e+00  8.962248e+00 -8.500643e-01
      vertex   6.777000e+00  6.504845e+00 -3.217595e-01
    endloop
  endfacet
  facet normal -1.953448e-03 -4.791527e-01 -8.777294e-01
    outer loop
      vertex   6.647999e+00  1.458988e+01 -3.920358e+00
      vertex   2.901228e+00  1.484975e+01 -4.053882e+00
      vertex   4.465968e+00  1.749490e+01 -5.501353e+00
    endloop
  endfacet
  facet normal  5.096734e-02 -5.358324e-01 -8.427847e-01
    outer loop
      vertex   7.888618e+00  1.158814e+01 -1.936861e+00
      vertex   4.261852e+00  1.230470e+01 -2.611770e+00
      vertex   6.647999e+00  1.458988e+01 -3.920358e+00
    endloop
  endfacet
  facet normal -3.307309e-03 -4.943264e-01 -8.692701e-01
    outer loop
      vertex   4.261852e+00  1.230470e+01 -2.611770e+00
      vertex   2.901228e+00  1.484975e+01 -4.053882e+00
      vertex   6.647999e+00  1.458988e+01 -3.920358e+00
    endloop
  endfacet
  facet normal  5.447996e-02 -3.844432e-01 -9.215396e-01
    outer loop
      vertex   4.465968e+00  1.749490e+01 -5.501353e+00
      vertex   1.066451e+00  1.748349e+01 -5.697567e+00
      vertex   2.724098e+00  2.026478e+01 -6.759854e+00
    endloop
  endfacet
  facet normal  5.149446e-02 -5.026766e-01 -8.629395e-01
    outer loop
      vertex   2.901228e+00  1.484975e+01 -4.053882e+00
      vertex   1.066451e+00  1.748349e+01 -5.697567e+00
      vertex   4.465968e+00  1.749490e+01 -5.501353e+00
    endloop
  endfacet
  facet normal -7.095986e-02 -3.187145e-01 -9.451908e-01
    outer loop
      vertex   1.066451e+00  1.748349e+01 -5.697567e+00
      vertex  -3.374534e-01  2.060758e+01 -6.645600e+00
      vertex   2.724098e+00  2.026478e+01 -6.759854e+00
    endloop
  endfacet
  facet normal -3.230428e-01 -1.588572e-01 -9.329565e-01
    outer loop
      vertex  -1.276651e+01  5.063222e+00 -1.285597e+00
      vertex  -1.592692e+01  5.729314e+00 -3.047002e-01
      vertex  -1.363124e+01  8.850218e+00 -1.631001e+00
    endloop
  endfacet
  facet normal  8.726072e-02 -4.124325e-01 -9.067994e-01
    outer loop
      vertex   5.593762e+00  9.357576e+00 -1.143184e+00
      vertex   4.261852e+00  1.230470e+01 -2.611770e+00
      vertex   7.888618e+00  1.158814e+01 -1.936861e+00
    endloop
  endfacet
  facet normal  1.247179e-01 -1.134519e-02 -9.921274e-01
    outer loop
      vertex  -9.573198e+00 -7.336971e+00 -3.261602e-01
      vertex  -6.183796e+00 -6.997164e+00  9.602733e-02
      vertex  -7.962102e+00 -1.027968e+01 -8.998279e-02
    endloop
  endfacet
  facet normal -6.297714e-02  9.043966e-02 -9.939088e-01
    outer loop
      vertex  -4.571659e+00 -1.006002e+01 -2.848240e-01
      vertex  -7.962102e+00 -1.027968e+01 -8.998279e-02
      vertex  -6.183796e+00 -6.997164e+00  9.602733e-02
    endloop
  endfacet
  facet normal  2.064667e-01  3.343913e-02 -9.778820e-01
    outer loop
      vertex  -8.172902e+00 -3.573786e+00  9.817743e-02
      vertex  -9.573198e+00 -7.336971e+00 -3.261602e-01
      vertex  -1.131518e+01 -4.949008e+00 -6.122987e-01
    endloop
  endfacet
  facet normal  1.165660e-01  6.835135e-02 -9.908282e-01
    outer loop
      vertex  -8.172902e+00 -3.573786e+00  9.817743e-02
      vertex  -6.183796e+00 -6.997164e+00  9.602733e-02
      vertex  -9.573198e+00 -7.336971e+00 -3.261602e-01
    endloop
  endfacet
  facet normal  2.192933e-01  2.980435e-03 -9.756544e-01
    outer loop
      vertex  -1.155209e+01 -1.897602e+00 -6.562264e-01
      vertex  -8.172902e+00 -3.573786e+00  9.817743e-02
      vertex  -1.131518e+01 -4.949008e+00 -6.122987e-01
    endloop
  endfacet
  facet normal  1.999474e-01 -3.665701e-02 -9.791207e-01
    outer loop
      vertex  -1.155209e+01 -1.897602e+00 -6.562264e-01
      vertex  -1.219018e+01  1.559183e+00 -9.159491e-01
      vertex  -8.811609e+00  4.427637e-01 -1.842099e-01
    endloop
  endfacet
  facet normal  2.002232e-01 -3.699388e-02 -9.790516e-01
    outer loop
      vertex  -8.811609e+00  4.427637e-01 -1.842099e-01
      vertex  -8.172902e+00 -3.573786e+00  9.817743e-02
      vertex  -1.155209e+01 -1.897602e+00 -6.562264e-01
    endloop
  endfacet
  facet normal  1.110648e-01 -8.617689e-02 -9.900697e-01
    outer loop
      vertex  -1.219018e+01  1.559183e+00 -9.159491e-01
      vertex  -1.276651e+01  5.063222e+00 -1.285597e+00
      vertex  -9.429831e+00  4.126136e+00 -8.297272e-01
    endloop
  endfacet
  facet normal  1.639525e-01 -1.435227e-01 -9.759717e-01
    outer loop
      vertex  -8.811609e+00  4.427637e-01 -1.842099e-01
      vertex  -1.219018e+01  1.559183e+00 -9.159491e-01
      vertex  -9.429831e+00  4.126136e+00 -8.297272e-01
    endloop
  endfacet
  facet normal -2.629100e-02 -4.548007e-01 -8.902050e-01
    outer loop
      vertex   2.418491e+00 -1.381465e+01 -2.684707e-01
      vertex   1.337584e+00 -1.665205e+01  1.213064e+00
      vertex  -2.709867e-01 -1.349484e+01 -3.524297e-01
    endloop
  endfacet
  facet normal -8.968957e-02 -4.787485e-01 -8.733588e-01
    outer loop
      vertex   1.337584e+00 -1.665205e+01  1.213064e+00
      vertex  -1.893362e+00 -1.659301e+01  1.512502e+00
      vertex  -2.709867e-01 -1.349484e+01 -3.524297e-01
    endloop
  endfacet
  facet normal -1.968550e-01  1.356298e-01 -9.710060e-01
    outer loop
      vertex   6.920553e+00 -1.025627e+01 -7.809647e-01
      vertex   4.654884e+00 -1.213764e+01 -5.844276e-01
      vertex   4.431180e+00 -8.600776e+00 -4.504750e-02
    endloop
  endfacet
  facet normal -1.328992e-01 -9.496056e-03 -9.910840e-01
    outer loop
      vertex   1.720099e+00 -1.042941e+01 -2.072556e-01
      vertex   4.654884e+00 -1.213764e+01 -5.844276e-01
      vertex   2.418491e+00 -1.381465e+01 -2.684707e-01
    endloop
  endfacet
  facet normal -4.078126e-02  1.481126e-01 -9.881293e-01
    outer loop
      vertex   4.654884e+00 -1.213764e+01 -5.844276e-01
      vertex   1.720099e+00 -1.042941e+01 -2.072556e-01
      vertex   4.431180e+00 -8.600776e+00 -4.504750e-02
    endloop
  endfacet
  facet normal -2.275349e-01 -1.921427e-02 -9.735803e-01
    outer loop
      vertex  -1.241216e+01  1.279604e+01 -1.993785e+00
      vertex  -1.029607e+01  1.070109e+01 -2.446990e+00
      vertex  -1.363124e+01  8.850218e+00 -1.631001e+00
    endloop
  endfacet
  facet normal -5.852228e-02 -1.039200e-01 -9.928624e-01
    outer loop
      vertex  -1.363124e+01  8.850218e+00 -1.631001e+00
      vertex  -9.851587e+00  7.668184e+00 -1.730065e+00
      vertex  -1.276651e+01  5.063222e+00 -1.285597e+00
    endloop
  endfacet
  facet normal -1.012463e-01 -2.428892e-01 -9.647560e-01
    outer loop
      vertex  -1.363124e+01  8.850218e+00 -1.631001e+00
      vertex  -1.029607e+01  1.070109e+01 -2.446990e+00
      vertex  -9.851587e+00  7.668184e+00 -1.730065e+00
    endloop
  endfacet
  facet normal -1.952443e-01  1.380450e-01 -9.709908e-01
    outer loop
      vertex   7.778830e+00 -6.907605e+00 -4.774675e-01
      vertex   6.920553e+00 -1.025627e+01 -7.809647e-01
      vertex   4.431180e+00 -8.600776e+00 -4.504750e-02
    endloop
  endfacet
  facet normal -3.164963e-01  1.176373e-01 -9.412712e-01
    outer loop
      vertex  -1.241216e+01  1.279604e+01 -1.993785e+00
      vertex  -1.099674e+01  1.661409e+01 -1.992542e+00
      vertex  -8.854698e+00  1.379554e+01 -3.065044e+00
    endloop
  endfacet
  facet normal -2.707452e-01 -6.571057e-02 -9.604057e-01
    outer loop
      vertex  -1.241216e+01  1.279604e+01 -1.993785e+00
      vertex  -8.854698e+00  1.379554e+01 -3.065044e+00
      vertex  -1.029607e+01  1.070109e+01 -2.446990e+00
    endloop
  endfacet
  facet normal -2.656166e-01  2.009833e-01 -9.428963e-01
    outer loop
      vertex   6.593827e+00 -2.935770e+00  7.029689e-01
      vertex   9.744394e+00 -4.406098e+00 -4.979632e-01
      vertex   7.778830e+00 -6.907605e+00 -4.774675e-01
    endloop
  endfacet
  facet normal -4.972233e-01 -4.824681e-02 -8.662802e-01
    outer loop
      vertex  -8.854698e+00  1.379554e+01 -3.065044e+00
      vertex  -1.099674e+01  1.661409e+01 -1.992542e+00
      vertex  -7.989505e+00  1.740510e+01 -3.762675e+00
    endloop
  endfacet
  facet normal -3.127924e-01  1.011422e-01 -9.444211e-01
    outer loop
      vertex   1.003220e+01 -1.341472e+00 -2.650802e-01
      vertex   9.744394e+00 -4.406098e+00 -4.979632e-01
      vertex   6.593827e+00 -2.935770e+00  7.029689e-01
    endloop
  endfacet
  facet normal -2.863743e-01  1.333243e-02 -9.580251e-01
    outer loop
      vertex   1.044912e+01  1.972274e+00 -3.435905e-01
      vertex   1.003220e+01 -1.341472e+00 -2.650802e-01
      vertex   7.154780e+00  7.383826e-01  6.239871e-01
    endloop
  endfacet
  facet normal -2.804605e-01  2.219112e-02 -9.596090e-01
    outer loop
      vertex   1.003220e+01 -1.341472e+00 -2.650802e-01
      vertex   6.593827e+00 -2.935770e+00  7.029689e-01
      vertex   7.154780e+00  7.383826e-01  6.239871e-01
    endloop
  endfacet
  facet normal  5.557300e-02 -5.004755e-01 -8.639653e-01
    outer loop
      vertex  -9.107735e-01  1.472024e+01 -4.224060e+00
      vertex   1.066451e+00  1.748349e+01 -5.697567e+00
      vertex   2.901228e+00  1.484975e+01 -4.053882e+00
    endloop
  endfacet
  facet normal  5.848431e-03 -4.906142e-01 -8.713574e-01
    outer loop
      vertex   9.131807e-01  1.220113e+01 -2.575931e+00
      vertex   2.901228e+00  1.484975e+01 -4.053882e+00
      vertex   4.261852e+00  1.230470e+01 -2.611770e+00
    endloop
  endfacet
  facet normal  5.570464e-02 -5.180805e-01 -8.535160e-01
    outer loop
      vertex  -9.107735e-01  1.472024e+01 -4.224060e+00
      vertex   2.901228e+00  1.484975e+01 -4.053882e+00
      vertex   9.131807e-01  1.220113e+01 -2.575931e+00
    endloop
  endfacet
  facet normal -2.725725e-02 -3.014711e-01 -9.530857e-01
    outer loop
      vertex  -2.287046e+00  1.764616e+01 -5.653115e+00
      vertex  -3.374534e-01  2.060758e+01 -6.645600e+00
      vertex   1.066451e+00  1.748349e+01 -5.697567e+00
    endloop
  endfacet
  facet normal -3.371496e-02 -4.513744e-01 -8.916975e-01
    outer loop
      vertex  -2.287046e+00  1.764616e+01 -5.653115e+00
      vertex   1.066451e+00  1.748349e+01 -5.697567e+00
      vertex  -9.107735e-01  1.472024e+01 -4.224060e+00
    endloop
  endfacet
  facet normal -2.969343e-01 -1.219226e-01 -9.470823e-01
    outer loop
      vertex  -3.374534e-01  2.060758e+01 -6.645600e+00
      vertex  -2.287046e+00  1.764616e+01 -5.653115e+00
      vertex  -3.432794e+00  2.132963e+01 -5.768085e+00
    endloop
  endfacet
  facet normal  6.539778e-02 -2.385029e-01 -9.689373e-01
    outer loop
      vertex  -9.429831e+00  4.126136e+00 -8.297272e-01
      vertex  -1.276651e+01  5.063222e+00 -1.285597e+00
      vertex  -9.851587e+00  7.668184e+00 -1.730065e+00
    endloop
  endfacet
  facet normal  3.417624e-02  2.511740e-02 -9.991002e-01
    outer loop
      vertex  -2.709867e-01 -1.349484e+01 -3.524297e-01
      vertex   1.720099e+00 -1.042941e+01 -2.072556e-01
      vertex   2.418491e+00 -1.381465e+01 -2.684707e-01
    endloop
  endfacet
  facet normal -2.394901e-01 -1.164425e-01 -9.638908e-01
    outer loop
      vertex   7.154780e+00  7.383826e-01  6.239871e-01
      vertex   7.911315e+00  3.687027e+00  7.980684e-02
      vertex   1.044912e+01  1.972274e+00 -3.435905e-01
    endloop
  endfacet
  facet normal -1.291009e-01 -3.234634e-01 -9.373924e-01
    outer loop
      vertex   3.111860e+00  6.989635e+00  1.573112e-02
      vertex   5.593762e+00  9.357576e+00 -1.143184e+00
      vertex   6.777000e+00  6.504845e+00 -3.217595e-01
    endloop
  endfacet
  facet normal -2.040583e-01 -2.181471e-01 -9.543438e-01
    outer loop
      vertex   4.878162e+00  3.676184e+00  7.308360e-01
      vertex   6.777000e+00  6.504845e+00 -3.217595e-01
      vertex   7.911315e+00  3.687027e+00  7.980684e-02
    endloop
  endfacet
  facet normal -1.238476e-01 -2.719756e-01 -9.543014e-01
    outer loop
      vertex   4.878162e+00  3.676184e+00  7.308360e-01
      vertex   3.111860e+00  6.989635e+00  1.573112e-02
      vertex   6.777000e+00  6.504845e+00 -3.217595e-01
    endloop
  endfacet
  facet normal -7.094981e-02 -4.703825e-01 -8.796058e-01
    outer loop
      vertex   2.712994e+00  1.005079e+01 -1.281525e+00
      vertex   4.261852e+00  1.230470e+01 -2.611770e+00
      vertex   5.593762e+00  9.357576e+00 -1.143184e+00
    endloop
  endfacet
  facet normal -5.108422e-02 -3.953150e-01 -9.171240e-01
    outer loop
      vertex   2.712994e+00  1.005079e+01 -1.281525e+00
      vertex   5.593762e+00  9.357576e+00 -1.143184e+00
      vertex   3.111860e+00  6.989635e+00  1.573112e-02
    endloop
  endfacet
  facet normal  6.628978e-03 -5.116364e-01 -8.591765e-01
    outer loop
      vertex   2.712994e+00  1.005079e+01 -1.281525e+00
      vertex   9.131807e-01  1.220113e+01 -2.575931e+00
      vertex   4.261852e+00  1.230470e+01 -2.611770e+00
    endloop
  endfacet
  facet normal  1.690772e-01  9.885590e-02 -9.806327e-01
    outer loop
      vertex  -4.351573e+00 -4.042149e+00  7.098228e-01
      vertex  -6.183796e+00 -6.997164e+00  9.602733e-02
      vertex  -8.172902e+00 -3.573786e+00  9.817743e-02
    endloop
  endfacet
  facet normal  1.031768e-01  1.760363e-01 -9.789616e-01
    outer loop
      vertex  -6.183796e+00 -6.997164e+00  9.602733e-02
      vertex  -2.600766e+00 -6.928357e+00  4.860304e-01
      vertex  -4.571659e+00 -1.006002e+01 -2.848240e-01
    endloop
  endfacet
  facet normal  1.044941e-01  1.397364e-01 -9.846597e-01
    outer loop
      vertex  -4.351573e+00 -4.042149e+00  7.098228e-01
      vertex  -2.600766e+00 -6.928357e+00  4.860304e-01
      vertex  -6.183796e+00 -6.997164e+00  9.602733e-02
    endloop
  endfacet
  facet normal  1.661226e-01 -4.284696e-02 -9.851738e-01
    outer loop
      vertex  -5.486449e+00 -4.438647e-01  4.150485e-01
      vertex  -8.172902e+00 -3.573786e+00  9.817743e-02
      vertex  -8.811609e+00  4.427637e-01 -1.842099e-01
    endloop
  endfacet
  facet normal  1.541061e-01 -3.229485e-02 -9.875264e-01
    outer loop
      vertex  -8.172902e+00 -3.573786e+00  9.817743e-02
      vertex  -5.486449e+00 -4.438647e-01  4.150485e-01
      vertex  -4.351573e+00 -4.042149e+00  7.098228e-01
    endloop
  endfacet
  facet normal  1.215956e-01 -1.515043e-01 -9.809490e-01
    outer loop
      vertex  -9.429831e+00  4.126136e+00 -8.297272e-01
      vertex  -6.055856e+00  2.972961e+00 -2.333951e-01
      vertex  -8.811609e+00  4.427637e-01 -1.842099e-01
    endloop
  endfacet
  facet normal  1.326054e-01 -1.634305e-01 -9.776024e-01
    outer loop
      vertex  -8.811609e+00  4.427637e-01 -1.842099e-01
      vertex  -6.055856e+00  2.972961e+00 -2.333951e-01
      vertex  -5.486449e+00 -4.438647e-01  4.150485e-01
    endloop
  endfacet
  facet normal -1.203618e-01  2.633495e-01 -9.571625e-01
    outer loop
      vertex   1.720099e+00 -1.042941e+01 -2.072556e-01
      vertex   1.181933e+00 -6.722355e+00  8.803611e-01
      vertex   4.431180e+00 -8.600776e+00 -4.504750e-02
    endloop
  endfacet
  facet normal  7.825948e-02 -2.301894e-01 -9.699939e-01
    outer loop
      vertex  -6.713334e+00  1.045739e+01 -2.100101e+00
      vertex  -1.029607e+01  1.070109e+01 -2.446990e+00
      vertex  -8.854698e+00  1.379554e+01 -3.065044e+00
    endloop
  endfacet
  facet normal  7.932626e-02 -2.182925e-01 -9.726539e-01
    outer loop
      vertex  -6.713334e+00  1.045739e+01 -2.100101e+00
      vertex  -9.851587e+00  7.668184e+00 -1.730065e+00
      vertex  -1.029607e+01  1.070109e+01 -2.446990e+00
    endloop
  endfacet
  facet normal -2.254525e-01 -1.325076e-01 -9.652010e-01
    outer loop
      vertex  -5.004573e+00  1.474061e+01 -4.094104e+00
      vertex  -8.854698e+00  1.379554e+01 -3.065044e+00
      vertex  -7.989505e+00  1.740510e+01 -3.762675e+00
    endloop
  endfacet
  facet normal -1.556787e-01 -3.651775e-01 -9.178287e-01
    outer loop
      vertex  -6.713334e+00  1.045739e+01 -2.100101e+00
      vertex  -8.854698e+00  1.379554e+01 -3.065044e+00
      vertex  -5.004573e+00  1.474061e+01 -4.094104e+00
    endloop
  endfacet
  facet normal -1.593290e-01  3.103746e-03 -9.872206e-01
    outer loop
      vertex   3.867018e+00  7.016703e-02  1.152503e+00
      vertex   7.154780e+00  7.383826e-01  6.239871e-01
      vertex   6.593827e+00 -2.935770e+00  7.029689e-01
    endloop
  endfacet
  facet normal -1.840010e-01 -1.994980e-02 -9.827235e-01
    outer loop
      vertex   2.691381e+00 -3.098009e+00  1.436940e+00
      vertex   3.867018e+00  7.016703e-02  1.152503e+00
      vertex   6.593827e+00 -2.935770e+00  7.029689e-01
    endloop
  endfacet
  facet normal -4.436872e-01  1.004577e-01 -8.905334e-01
    outer loop
      vertex  -6.903077e+00  2.133818e+01 -3.860286e+00
      vertex  -5.235569e+00  1.849335e+01 -5.011997e+00
      vertex  -7.989505e+00  1.740510e+01 -3.762675e+00
    endloop
  endfacet
  facet normal -3.191856e-01 -2.436539e-01 -9.158348e-01
    outer loop
      vertex  -7.989505e+00  1.740510e+01 -3.762675e+00
      vertex  -5.235569e+00  1.849335e+01 -5.011997e+00
      vertex  -5.004573e+00  1.474061e+01 -4.094104e+00
    endloop
  endfacet
  facet normal -4.803548e-01  7.230732e-02 -8.740886e-01
    outer loop
      vertex  -5.235569e+00  1.849335e+01 -5.011997e+00
      vertex  -6.903077e+00  2.133818e+01 -3.860286e+00
      vertex  -3.432794e+00  2.132963e+01 -5.768085e+00
    endloop
  endfacet
  facet normal -3.056888e-02 -4.502319e-01 -8.923883e-01
    outer loop
      vertex  -5.004573e+00  1.474061e+01 -4.094104e+00
      vertex  -2.287046e+00  1.764616e+01 -5.653115e+00
      vertex  -9.107735e-01  1.472024e+01 -4.224060e+00
    endloop
  endfacet
  facet normal  2.679003e-02 -5.336347e-01 -8.452907e-01
    outer loop
      vertex  -9.107735e-01  1.472024e+01 -4.224060e+00
      vertex   9.131807e-01  1.220113e+01 -2.575931e+00
      vertex  -2.643402e+00  1.173154e+01 -2.392197e+00
    endloop
  endfacet
  facet normal -2.983114e-02 -5.097180e-01 -8.598242e-01
    outer loop
      vertex  -5.004573e+00  1.474061e+01 -4.094104e+00
      vertex  -9.107735e-01  1.472024e+01 -4.224060e+00
      vertex  -2.643402e+00  1.173154e+01 -2.392197e+00
    endloop
  endfacet
  facet normal -2.399523e-01 -1.047611e-01 -9.651156e-01
    outer loop
      vertex  -2.287046e+00  1.764616e+01 -5.653115e+00
      vertex  -5.235569e+00  1.849335e+01 -5.011997e+00
      vertex  -3.432794e+00  2.132963e+01 -5.768085e+00
    endloop
  endfacet
  facet normal -2.725628e-01 -2.443911e-01 -9.305819e-01
    outer loop
      vertex  -5.235569e+00  1.849335e+01 -5.011997e+00
      vertex  -2.287046e+00  1.764616e+01 -5.653115e+00
      vertex  -5.004573e+00  1.474061e+01 -4.094104e+00
    endloop
  endfacet
  facet normal -2.077634e-01 -1.257224e-01 -9.700661e-01
    outer loop
      vertex   4.878162e+00  3.676184e+00  7.308360e-01
      vertex   7.911315e+00  3.687027e+00  7.980684e-02
      vertex   7.154780e+00  7.383826e-01  6.239871e-01
    endloop
  endfacet
  facet normal -5.904239e-02 -4.919456e-01 -8.686216e-01
    outer loop
      vertex  -2.709867e-01 -1.349484e+01 -3.524297e-01
      vertex  -1.893362e+00 -1.659301e+01  1.512502e+00
      vertex  -3.245495e+00 -1.337211e+01 -2.197529e-01
    endloop
  endfacet
  facet normal -1.904751e-01 -5.258119e-01 -8.290001e-01
    outer loop
      vertex  -3.245495e+00 -1.337211e+01 -2.197529e-01
      vertex  -1.893362e+00 -1.659301e+01  1.512502e+00
      vertex  -5.109212e+00 -1.608499e+01  1.929168e+00
    endloop
  endfacet
  facet normal  3.452651e-02  2.183308e-01 -9.752639e-01
    outer loop
      vertex  -4.571659e+00 -1.006002e+01 -2.848240e-01
      vertex  -2.600766e+00 -6.928357e+00  4.860304e-01
      vertex  -1.150189e+00 -9.881249e+00 -1.236752e-01
    endloop
  endfacet
  facet normal  4.708732e-02 -7.709406e-04 -9.988905e-01
    outer loop
      vertex  -4.571659e+00 -1.006002e+01 -2.848240e-01
      vertex  -1.150189e+00 -9.881249e+00 -1.236752e-01
      vertex  -3.245495e+00 -1.337211e+01 -2.197529e-01
    endloop
  endfacet
  facet normal  1.646553e-01 -2.245284e-01 -9.604560e-01
    outer loop
      vertex  -6.564761e+00  6.677200e+00 -9.349246e-01
      vertex  -9.429831e+00  4.126136e+00 -8.297272e-01
      vertex  -9.851587e+00  7.668184e+00 -1.730065e+00
    endloop
  endfacet
  facet normal  1.150406e-01 -1.695624e-01 -9.787820e-01
    outer loop
      vertex  -6.055856e+00  2.972961e+00 -2.333951e-01
      vertex  -9.429831e+00  4.126136e+00 -8.297272e-01
      vertex  -6.564761e+00  6.677200e+00 -9.349246e-01
    endloop
  endfacet
  facet normal -1.782560e-02  5.884710e-02 -9.981079e-01
    outer loop
      vertex  -1.150189e+00 -9.881249e+00 -1.236752e-01
      vertex   1.720099e+00 -1.042941e+01 -2.072556e-01
      vertex  -2.709867e-01 -1.349484e+01 -3.524297e-01
    endloop
  endfacet
  facet normal -4.232114e-02  5.286172e-02 -9.977046e-01
    outer loop
      vertex  -1.150189e+00 -9.881249e+00 -1.236752e-01
      vertex  -2.709867e-01 -1.349484e+01 -3.524297e-01
      vertex  -3.245495e+00 -1.337211e+01 -2.197529e-01
    endloop
  endfacet
  facet normal  2.652150e-02  2.849687e-01 -9.581698e-01
    outer loop
      vertex  -1.150189e+00 -9.881249e+00 -1.236752e-01
      vertex   1.181933e+00 -6.722355e+00  8.803611e-01
      vertex   1.720099e+00 -1.042941e+01 -2.072556e-01
    endloop
  endfacet
  facet normal -1.433492e-01 -7.519629e-02 -9.868113e-01
    outer loop
      vertex   7.154780e+00  7.383826e-01  6.239871e-01
      vertex   3.867018e+00  7.016703e-02  1.152503e+00
      vertex   4.878162e+00  3.676184e+00  7.308360e-01
    endloop
  endfacet
  facet normal  6.021650e-02 -4.773132e-01 -8.766677e-01
    outer loop
      vertex  -1.005361e-01  8.996026e+00 -9.005008e-01
      vertex   9.131807e-01  1.220113e+01 -2.575931e+00
      vertex   2.712994e+00  1.005079e+01 -1.281525e+00
    endloop
  endfacet
  facet normal  1.601442e-02 -4.671758e-01 -8.840194e-01
    outer loop
      vertex  -2.643402e+00  1.173154e+01 -2.392197e+00
      vertex   9.131807e-01  1.220113e+01 -2.575931e+00
      vertex  -1.005361e-01  8.996026e+00 -9.005008e-01
    endloop
  endfacet
  facet normal  6.660245e-02 -1.764421e-01 -9.820551e-01
    outer loop
      vertex   1.455124e+00  3.117803e+00  5.990096e-01
      vertex   3.111860e+00  6.989635e+00  1.573112e-02
      vertex   4.878162e+00  3.676184e+00  7.308360e-01
    endloop
  endfacet
  facet normal  2.059850e-02 -3.878297e-01 -9.215009e-01
    outer loop
      vertex   3.111860e+00  6.989635e+00  1.573112e-02
      vertex  -1.005361e-01  8.996026e+00 -9.005008e-01
      vertex   2.712994e+00  1.005079e+01 -1.281525e+00
    endloop
  endfacet
  facet normal  1.105399e-01 -2.609514e-01 -9.590023e-01
    outer loop
      vertex  -1.005361e-01  8.996026e+00 -9.005008e-01
      vertex   3.111860e+00  6.989635e+00  1.573112e-02
      vertex  -7.605936e-01  5.732978e+00 -8.868369e-02
    endloop
  endfacet
  facet normal  8.623648e-02 -1.843926e-01 -9.790621e-01
    outer loop
      vertex   3.111860e+00  6.989635e+00  1.573112e-02
      vertex   1.455124e+00  3.117803e+00  5.990096e-01
      vertex  -7.605936e-01  5.732978e+00 -8.868369e-02
    endloop
  endfacet
  facet normal  1.428410e-01 -2.864054e-01 -9.474008e-01
    outer loop
      vertex  -9.851587e+00  7.668184e+00 -1.730065e+00
      vertex  -6.713334e+00  1.045739e+01 -2.100101e+00
      vertex  -6.564761e+00  6.677200e+00 -9.349246e-01
    endloop
  endfacet
  facet normal  1.273746e-01 -4.101088e-02 -9.910064e-01
    outer loop
      vertex  -5.486449e+00 -4.438647e-01  4.150485e-01
      vertex  -2.492898e+00 -1.296175e+00  8.350826e-01
      vertex  -4.351573e+00 -4.042149e+00  7.098228e-01
    endloop
  endfacet
  facet normal  1.061998e-01  1.407458e-01 -9.843334e-01
    outer loop
      vertex  -8.908364e-01 -3.801775e+00  1.117572e+00
      vertex  -2.600766e+00 -6.928357e+00  4.860304e-01
      vertex  -4.351573e+00 -4.042149e+00  7.098228e-01
    endloop
  endfacet
  facet normal  1.193725e-01 -3.553941e-02 -9.922132e-01
    outer loop
      vertex  -4.351573e+00 -4.042149e+00  7.098228e-01
      vertex  -2.492898e+00 -1.296175e+00  8.350826e-01
      vertex  -8.908364e-01 -3.801775e+00  1.117572e+00
    endloop
  endfacet
  facet normal  1.033894e-01 -1.687948e-01 -9.802137e-01
    outer loop
      vertex  -6.055856e+00  2.972961e+00 -2.333951e-01
      vertex  -2.380776e+00  2.114620e+00  3.020473e-01
      vertex  -5.486449e+00 -4.438647e-01  4.150485e-01
    endloop
  endfacet
  facet normal  9.333675e-02 -1.567251e-01 -9.832219e-01
    outer loop
      vertex  -2.380776e+00  2.114620e+00  3.020473e-01
      vertex  -2.492898e+00 -1.296175e+00  8.350826e-01
      vertex  -5.486449e+00 -4.438647e-01  4.150485e-01
    endloop
  endfacet
  facet normal  7.541438e-02 -4.454130e-01 -8.921435e-01
    outer loop
      vertex  -5.004573e+00  1.474061e+01 -4.094104e+00
      vertex  -2.643402e+00  1.173154e+01 -2.392197e+00
      vertex  -6.713334e+00  1.045739e+01 -2.100101e+00
    endloop
  endfacet
  facet normal  6.322448e-02 -4.104932e-01 -9.096692e-01
    outer loop
      vertex  -6.713334e+00  1.045739e+01 -2.100101e+00
      vertex  -2.643402e+00  1.173154e+01 -2.392197e+00
      vertex  -3.428768e+00  8.352742e+00 -9.220808e-01
    endloop
  endfacet
  facet normal  1.563177e-01 -2.853203e-01 -9.455988e-01
    outer loop
      vertex  -6.713334e+00  1.045739e+01 -2.100101e+00
      vertex  -3.428768e+00  8.352742e+00 -9.220808e-01
      vertex  -6.564761e+00  6.677200e+00 -9.349246e-01
    endloop
  endfacet
  facet normal  5.970648e-02 -1.324358e-01 -9.893916e-01
    outer loop
      vertex   1.455124e+00  3.117803e+00  5.990096e-01
      vertex   4.878162e+00  3.676184e+00  7.308360e-01
      vertex   3.867018e+00  7.016703e-02  1.152503e+00
    endloop
  endfacet
  facet normal  8.751643e-02  2.424897e-01 -9.661985e-01
    outer loop
      vertex  -1.150189e+00 -9.881249e+00 -1.236752e-01
      vertex  -2.600766e+00 -6.928357e+00  4.860304e-01
      vertex   1.181933e+00 -6.722355e+00  8.803611e-01
    endloop
  endfacet
  facet normal  9.462619e-02  1.471254e-01 -9.845811e-01
    outer loop
      vertex  -8.908364e-01 -3.801775e+00  1.117572e+00
      vertex   1.181933e+00 -6.722355e+00  8.803611e-01
      vertex  -2.600766e+00 -6.928357e+00  4.860304e-01
    endloop
  endfacet
  facet normal  1.228423e-01 -1.683506e-01 -9.780429e-01
    outer loop
      vertex  -3.807186e+00  5.193267e+00 -3.331434e-01
      vertex  -6.055856e+00  2.972961e+00 -2.333951e-01
      vertex  -6.564761e+00  6.677200e+00 -9.349246e-01
    endloop
  endfacet
  facet normal  1.074134e-01 -1.529197e-01 -9.823838e-01
    outer loop
      vertex  -3.807186e+00  5.193267e+00 -3.331434e-01
      vertex  -2.380776e+00  2.114620e+00  3.020473e-01
      vertex  -6.055856e+00  2.972961e+00 -2.333951e-01
    endloop
  endfacet
  facet normal  6.360063e-02  1.255502e-01 -9.900465e-01
    outer loop
      vertex   1.181933e+00 -6.722355e+00  8.803611e-01
      vertex  -8.908364e-01 -3.801775e+00  1.117572e+00
      vertex   2.691381e+00 -3.098009e+00  1.436940e+00
    endloop
  endfacet
  facet normal  4.109644e-02 -1.044619e-01 -9.936794e-01
    outer loop
      vertex   3.867018e+00  7.016703e-02  1.152503e+00
      vertex   2.691381e+00 -3.098009e+00  1.436940e+00
      vertex   3.729795e-01 -3.838004e-01  1.055721e+00
    endloop
  endfacet
  facet normal  9.932617e-02 -5.470549e-02 -9.935499e-01
    outer loop
      vertex   3.729795e-01 -3.838004e-01  1.055721e+00
      vertex   2.691381e+00 -3.098009e+00  1.436940e+00
      vertex  -8.908364e-01 -3.801775e+00  1.117572e+00
    endloop
  endfacet
  facet normal  4.598418e-02 -1.431575e-01 -9.886311e-01
    outer loop
      vertex   3.729795e-01 -3.838004e-01  1.055721e+00
      vertex   1.455124e+00  3.117803e+00  5.990096e-01
      vertex   3.867018e+00  7.016703e-02  1.152503e+00
    endloop
  endfacet
  facet normal  8.593664e-02 -4.142236e-01 -9.061091e-01
    outer loop
      vertex  -2.643402e+00  1.173154e+01 -2.392197e+00
      vertex  -1.005361e-01  8.996026e+00 -9.005008e-01
      vertex  -3.428768e+00  8.352742e+00 -9.220808e-01
    endloop
  endfacet
  facet normal  9.325097e-02 -5.247198e-02 -9.942589e-01
    outer loop
      vertex  -8.908364e-01 -3.801775e+00  1.117572e+00
      vertex  -2.492898e+00 -1.296175e+00  8.350826e-01
      vertex   3.729795e-01 -3.838004e-01  1.055721e+00
    endloop
  endfacet
  facet normal  1.254636e-01 -1.572094e-01 -9.795632e-01
    outer loop
      vertex   3.729795e-01 -3.838004e-01  1.055721e+00
      vertex  -2.492898e+00 -1.296175e+00  8.350826e-01
      vertex  -2.380776e+00  2.114620e+00  3.020473e-01
    endloop
  endfacet
  facet normal  1.079992e-01 -1.946614e-01 -9.749067e-01
    outer loop
      vertex  -6.564761e+00  6.677200e+00 -9.349246e-01
      vertex  -3.428768e+00  8.352742e+00 -9.220808e-01
      vertex  -3.807186e+00  5.193267e+00 -3.331434e-01
    endloop
  endfacet
  facet normal  1.060357e-01 -1.535680e-01 -9.824324e-01
    outer loop
      vertex  -7.605936e-01  5.732978e+00 -8.868369e-02
      vertex  -2.380776e+00  2.114620e+00  3.020473e-01
      vertex  -3.807186e+00  5.193267e+00 -3.331434e-01
    endloop
  endfacet
  facet normal  1.127412e-01 -1.951124e-01 -9.742795e-01
    outer loop
      vertex  -3.807186e+00  5.193267e+00 -3.331434e-01
      vertex  -3.428768e+00  8.352742e+00 -9.220808e-01
      vertex  -7.605936e-01  5.732978e+00 -8.868369e-02
    endloop
  endfacet
  facet normal  5.487694e-02 -2.515070e-01 -9.662985e-01
    outer loop
      vertex  -3.428768e+00  8.352742e+00 -9.220808e-01
      vertex  -1.005361e-01  8.996026e+00 -9.005008e-01
      vertex  -7.605936e-01  5.732978e+00 -8.868369e-02
    endloop
  endfacet
  facet normal  1.188106e-01 -1.644347e-01 -9.792065e-01
    outer loop
      vertex  -2.380776e+00  2.114620e+00  3.020473e-01
      vertex   1.455124e+00  3.117803e+00  5.990096e-01
      vertex   3.729795e-01 -3.838004e-01  1.055721e+00
    endloop
  endfacet
  facet normal  1.173233e-01 -1.584006e-01 -9.803797e-01
    outer loop
      vertex  -7.605936e-01  5.732978e+00 -8.868369e-02
      vertex   1.455124e+00  3.117803e+00  5.990096e-01
      vertex  -2.380776e+00  2.114620e+00  3.020473e-01
    endloop
  endfacet
endsolid vcg
